<svg id="Capa_1" enable-background="new 0 0 512 512" height="512" viewBox="0 0 512 512" width="512" xmlns="http://www.w3.org/2000/svg"><g><path d="m401 512h-290l17-98.93h256z" fill="#4d5e80"/><path d="m401 512h-145v-98.93h128z" fill="#3d4566"/><path d="m432 176c0 144-176 280.5-176 280.5s-176-136.5-176-280.5c0-97.2 78.8-176 176-176s176 78.8 176 176z" fill="#ff7814"/><path d="m432 176c0 144-176 280.5-176 280.5v-456.5c97.2 0 176 78.8 176 176z" fill="#fe4b00"/><circle cx="256" cy="175.72" fill="#ffeff0" r="112"/><path d="m368 175.72c0 61.86-50.14 112-112 112v-224c61.86 0 112 50.15 112 112z" fill="#ebdeda"/><g fill="#00cf6e"><path d="m311.88 158.89-55.88 55.87-9.62 9.62-46.26-46.26 21.22-21.21 25.04 25.05 9.62-9.62 34.66-34.67z"/><path d="m311.88 158.89-55.88 55.87v-42.42l34.66-34.67z"/></g></g></svg>